<svg width="40" height="40" viewBox="0 0 40 40" xmlns="http://www.w3.org/2000/svg">
    <path d="M26.7179 7c-2.489 0-4.5465 1.9065-4.8702 4.3442-2.3195.8126-4.007 3.0316-4.007 5.6569 0 3.305 2.6585 6.0007 5.9181 6.0007s5.9182-2.6957 5.9182-6.0007c0-.297-.0463-.5938-.0925-.8751 1.3254-.8751 2.0652-2.4065 2.0652-4.1255C31.6497 9.2502 29.4304 7 26.7179 7zm0 2.0002c1.6414 0 2.959 1.3361 2.959 3.0003 0 .9689-.2542 1.6565-.7474 2.141-.9864-1.8128-2.8435-3.063-4.9935-3.1254.393-1.172 1.4796-2.0159 2.7819-2.0159zm-2.959 4.0005c2.1884 0 3.9453 1.7814 3.9453 4.0004s-1.757 4.0004-3.9454 4.0004c-2.1885 0-3.9454-1.7814-3.9454-4.0004s1.757-4.0004 3.9454-4.0004zm-9.8637 8.0008c-1.0865 0-2.2501.297-2.2501.297-.0386.0078-.077.0156-.108.0312l-4.87 1.7267c-.5164.1798-.786.7423-.6165 1.258l1.9727 6.0006c.0924.2657.2774.4767.524.5939a.9826.9826 0 0 0 .786.0234l4.5157-1.8361 6.2726 3.1331-.1156-.0625a4.8912 4.8912 0 0 0 4.847.3516c.0463-.0234.0925-.0469.131-.0781l8.2069-5.61.8091-.5548-1.0942-1.6642-.8246.5626-8.0912 5.5396c-.9401.4376-2.0267.3673-2.8897-.211-.0386-.0234-.0694-.0468-.1156-.0624l-6.658-3.3363c-.2466-.125-.5394-.1329-.8014-.0313l-3.9608 1.6096-1.3255-4.063 3.8838-1.383c.0463-.0078 1.0943-.2343 1.7724-.2343.9093 0 1.4025.0312 2.3503.7813 1.6953 1.3595 2.4505 2.1643 3.6064 2.6643 1.1559.508 2.412.5548 4.8933.5548h.9863V25.002h-.9863c-2.4505 0-3.4138-.0782-4.1073-.3907-.6935-.3047-1.4179-1.0001-3.1748-2.3909-1.2715-1.0157-2.5045-1.2189-3.5679-1.2189z" fill="#D15C22"/>
</svg>
