<svg width="40" height="40" viewBox="0 0 40 40" xmlns="http://www.w3.org/2000/svg">
    <path d="M26 8c-2.0469 0-3.9063.3438-5.3438.961-.7187.3046-1.3359.6796-1.8124 1.164C18.3593 10.6172 18 11.2734 18 12v2.5078C16.8203 14.1875 15.461 14 14 14c-2.0469 0-3.9063.3438-5.3438.961-.7187.3046-1.3359.6796-1.8125 1.164C6.3594 16.6172 6 17.2734 6 18v12c0 .7266.3594 1.3828.8438 1.875.4765.4844 1.0937.8594 1.8125 1.164C10.0938 33.6563 11.953 34 14 34s3.9063-.3438 5.3438-.961c.7187-.3046 1.3359-.6796 1.8124-1.164C21.6407 31.3828 22 30.7266 22 30v-2.5078c1.1797.3203 2.539.5078 4 .5078 2.0469 0 3.9063-.3438 5.3438-.961.7187-.3046 1.3359-.6796 1.8124-1.164C33.6407 25.3828 34 24.7266 34 24V12c0-.7266-.3594-1.3828-.8438-1.875-.4765-.4844-1.0937-.8594-1.8124-1.164C29.9062 8.3436 28.0467 8 26 8zm0 2c1.8203 0 3.461.3281 4.5547.7969.5469.2343.961.5078 1.1875.7343.2187.2344.2578.3672.2578.4688 0 .1016-.039.2344-.2578.4688-.2266.2265-.6406.5-1.1875.7343C29.4609 13.672 27.8203 14 26 14c-1.8203 0-3.461-.3281-4.5547-.7969-.5469-.2343-.961-.5078-1.1797-.7343C20.0391 12.2343 20 12.1015 20 12c0-.1016.039-.2344.2656-.4688.2188-.2265.6328-.5 1.1797-.7343C22.5391 10.328 24.1797 10 26 10zm-6 4.7031c.211.1094.4219.2344.6563.336C22.0937 15.6563 23.953 16 26 16s3.9063-.3438 5.3438-.961c.2343-.1015.4453-.2265.6562-.3359V16c0 .1016-.039.2344-.2578.4688-.2266.2265-.6406.5-1.1875.7343C29.4609 17.672 27.8203 18 26 18c-1.5938 0-3.0234-.2578-4.1016-.6406-.1328-.4688-.4062-.8907-.7421-1.2344-.3204-.3203-.7188-.586-1.1563-.8281v-.5938zM14 16c1.8203 0 3.461.3281 4.5547.7969.5469.2343.961.5078 1.1797.7343.2265.2344.2656.3672.2656.4688 0 .1016-.039.2344-.2656.4688-.2188.2265-.6328.5-1.1797.7343C17.4609 19.672 15.8203 20 14 20c-1.8203 0-3.461-.3281-4.5547-.7969-.5469-.2343-.961-.5078-1.1797-.7343C8.0391 18.2343 8 18.1015 8 18c0-.1016.039-.2344.2656-.4688.2188-.2265.6328-.5 1.1797-.7343C10.5391 16.328 12.1797 16 14 16zm18 2.7031V20c0 .1016-.039.2344-.2578.4688-.2266.2265-.6406.5-1.1875.7343C29.4609 21.672 27.8203 22 26 22c-1.539 0-2.9375-.2422-4-.6016v-1.9062c1.1875.3203 2.539.5078 4 .5078 2.0469 0 3.9063-.3438 5.3438-.961.2343-.1015.4453-.2265.6562-.3359zm-24 2c.211.1094.4219.2344.6563.336C10.0938 21.6562 11.953 22 14 22s3.9063-.3438 5.3438-.961c.2343-.1015.4453-.2265.6562-.3359v1.3594h-.0078c-.039.2031-.5156.7734-1.6094 1.211C17.2891 23.7108 15.7266 24 14 24c-1.8203 0-3.461-.3281-4.5547-.7969-.5469-.2343-.961-.5078-1.1797-.7343C8.0391 22.2343 8 22.1015 8 22v-1.2969zm24 2V24c0 .1016-.039.2344-.2578.4688-.2266.2265-.6406.5-1.1875.7343C29.4609 25.672 27.8203 26 26 26c-1.5469 0-2.9375-.2422-4-.6016V23.5c1.1797.3203 2.539.5 4 .5 2.0469 0 3.9063-.3438 5.3438-.961.2343-.1015.4453-.2265.6562-.3359zm-24 2c.211.1094.4219.2344.6563.336C10.0938 25.6562 11.953 26 14 26c1.9453 0 3.7188-.3125 5.125-.8672.3047-.125.5938-.2656.875-.414V26c0 .1016-.039.2344-.2656.4688-.2188.2265-.6328.5-1.1797.7343C17.4609 27.672 15.8203 28 14 28c-1.8203 0-3.461-.3281-4.5547-.7969-.5469-.2343-.961-.5078-1.1797-.7343C8.0391 26.2343 8 26.1015 8 26v-1.2969zm0 3.9922c.211.1172.4219.2422.6563.3438C10.0938 29.6562 11.953 30 14 30s3.9063-.3438 5.3438-.961c.2343-.1015.4453-.2265.6562-.3437V30c0 .1016-.039.2344-.2656.4688-.2188.2265-.6328.5-1.1797.7343C17.4609 31.672 15.8203 32 14 32c-1.8203 0-3.461-.3281-4.5547-.7969-.5469-.2343-.961-.5078-1.1797-.7343C8.0391 30.2343 8 30.1015 8 30v-1.3047z" fill="#D15C22"/>
</svg>
