<?xml version="1.0" encoding="UTF-8"?>
<svg width="40px" height="40px" viewBox="0 0 40 40" version="1.1" xmlns="http://www.w3.org/2000/svg" xmlns:xlink="http://www.w3.org/1999/xlink">
    <!-- Generator: Sketch 49.3 (51167) - http://www.bohemiancoding.com/sketch -->
    <title>icon-commission</title>
    <desc>Created with Sketch.</desc>
    <defs></defs>
    <g id="icon-commission" stroke="none" stroke-width="1" fill="none" fill-rule="evenodd">
        <rect id="Rectangle-3" x="0" y="0" width="40" height="40"></rect>
        <path d="M26,8 C23.953126,8 22.09375,8.34375 20.65625,8.960938 C19.9375,9.265626 19.320312,9.640626 18.84375,10.125 C18.359376,10.617188 18,11.273438 18,12 L18,14.507812 C16.820312,14.1875 15.460938,14 14,14 C11.953126,14 10.09375,14.34375 8.65625,14.960938 C7.9375,15.265626 7.320312,15.640626 6.84375,16.125 C6.359376,16.617188 6,17.273438 6,18 L6,30 C6,30.726562 6.359376,31.382812 6.84375,31.875 C7.320312,32.359376 7.9375,32.734376 8.65625,33.039062 C10.09375,33.65625 11.953126,34 14,34 C16.046876,34 17.90625,33.65625 19.34375,33.039062 C20.0625,32.734376 20.679688,32.359376 21.15625,31.875 C21.640626,31.382812 22,30.726562 22,30 L22,27.492188 C23.179688,27.8125 24.539062,28 26,28 C28.046876,28 29.90625,27.65625 31.34375,27.039062 C32.0625,26.734376 32.679688,26.359376 33.15625,25.875 C33.640626,25.382812 34,24.726562 34,24 L34,12 C34,11.273438 33.640626,10.617188 33.15625,10.125 C32.679688,9.640626 32.0625,9.265626 31.34375,8.960938 C29.90625,8.34375 28.046876,8 26,8 Z M26,10 C27.820312,10 29.460938,10.328126 30.554688,10.796876 C31.101562,11.03125 31.515626,11.304688 31.742188,11.53125 C31.960938,11.765626 32,11.898438 32,12 C32,12.101562 31.960938,12.234376 31.742188,12.46875 C31.515626,12.695312 31.101562,12.96875 30.554688,13.203126 C29.460938,13.671876 27.820312,14 26,14 C24.179688,14 22.539062,13.671876 21.445312,13.203126 C20.898438,12.96875 20.484376,12.695312 20.265626,12.46875 C20.039062,12.234376 20,12.101562 20,12 C20,11.898438 20.039062,11.765626 20.265626,11.53125 C20.484376,11.304688 20.898438,11.03125 21.445312,10.796876 C22.539062,10.328126 24.179688,10 26,10 Z M20,14.703126 C20.210938,14.8125 20.421876,14.9375 20.65625,15.039062 C22.09375,15.65625 23.953126,16 26,16 C28.046876,16 29.90625,15.65625 31.34375,15.039062 C31.578126,14.9375 31.789062,14.8125 32,14.703126 L32,16 C32,16.101562 31.960938,16.234376 31.742188,16.46875 C31.515626,16.695312 31.101562,16.96875 30.554688,17.203126 C29.460938,17.671876 27.820312,18 26,18 C24.40625,18 22.976562,17.742188 21.898438,17.359376 C21.765626,16.890626 21.492188,16.46875 21.15625,16.125 C20.835938,15.804688 20.4375,15.539062 20,15.296876 L20,14.703126 Z M14,16 C15.820312,16 17.460938,16.328126 18.554688,16.796876 C19.101562,17.03125 19.515626,17.304688 19.734376,17.53125 C19.960938,17.765626 20,17.898438 20,18 C20,18.101562 19.960938,18.234376 19.734376,18.46875 C19.515626,18.695312 19.101562,18.96875 18.554688,19.203126 C17.460938,19.671876 15.820312,20 14,20 C12.179688,20 10.539062,19.671876 9.445312,19.203126 C8.898438,18.96875 8.484376,18.695312 8.265626,18.46875 C8.039062,18.234376 8,18.101562 8,18 C8,17.898438 8.039062,17.765626 8.265626,17.53125 C8.484376,17.304688 8.898438,17.03125 9.445312,16.796876 C10.539062,16.328126 12.179688,16 14,16 Z M32,18.703126 L32,20 C32,20.101562 31.960938,20.234376 31.742188,20.46875 C31.515626,20.695312 31.101562,20.96875 30.554688,21.203126 C29.460938,21.671876 27.820312,22 26,22 C24.460938,22 23.0625,21.757812 22,21.398438 L22,19.492188 C23.1875,19.8125 24.539062,20 26,20 C28.046876,20 29.90625,19.65625 31.34375,19.039062 C31.578126,18.9375 31.789062,18.8125 32,18.703126 Z M8,20.703126 C8.210938,20.8125 8.421876,20.9375 8.65625,21.039062 C10.09375,21.65625 11.953126,22 14,22 C16.046876,22 17.90625,21.65625 19.34375,21.039062 C19.578126,20.9375 19.789062,20.8125 20,20.703126 L20,22 C20,22.023438 20,22.039062 20,22.0625 L19.992188,22.0625 C19.953126,22.265626 19.476562,22.835938 18.382812,23.273438 C17.289062,23.710938 15.726562,24 14,24 C12.179688,24 10.539062,23.671876 9.445312,23.203126 C8.898438,22.96875 8.484376,22.695312 8.265626,22.46875 C8.039062,22.234376 8,22.101562 8,22 L8,20.703126 Z M32,22.703126 L32,24 C32,24.101562 31.960938,24.234376 31.742188,24.46875 C31.515626,24.695312 31.101562,24.96875 30.554688,25.203126 C29.460938,25.671876 27.820312,26 26,26 C24.453126,26 23.0625,25.757812 22,25.398438 L22,23.5 C23.179688,23.820312 24.539062,24 26,24 C28.046876,24 29.90625,23.65625 31.34375,23.039062 C31.578126,22.9375 31.789062,22.8125 32,22.703126 Z M8,24.703126 C8.210938,24.8125 8.421876,24.9375 8.65625,25.039062 C10.09375,25.65625 11.953126,26 14,26 C15.945312,26 17.71875,25.6875 19.125,25.132812 C19.429688,25.007812 19.71875,24.867188 20,24.71875 L20,26 C20,26.101562 19.960938,26.234376 19.734376,26.46875 C19.515626,26.695312 19.101562,26.96875 18.554688,27.203126 C17.460938,27.671876 15.820312,28 14,28 C12.179688,28 10.539062,27.671876 9.445312,27.203126 C8.898438,26.96875 8.484376,26.695312 8.265626,26.46875 C8.039062,26.234376 8,26.101562 8,26 L8,24.703126 Z M8,28.695312 C8.210938,28.8125 8.421876,28.9375 8.65625,29.039062 C10.09375,29.65625 11.953126,30 14,30 C16.046876,30 17.90625,29.65625 19.34375,29.039062 C19.578126,28.9375 19.789062,28.8125 20,28.695312 L20,30 C20,30.101562 19.960938,30.234376 19.734376,30.46875 C19.515626,30.695312 19.101562,30.96875 18.554688,31.203126 C17.460938,31.671876 15.820312,32 14,32 C12.179688,32 10.539062,31.671876 9.445312,31.203126 C8.898438,30.96875 8.484376,30.695312 8.265626,30.46875 C8.039062,30.234376 8,30.101562 8,30 L8,28.695312 Z" id="Shape" fill="#D15C22" fill-rule="nonzero"></path>
    </g>
</svg>